<svg width="24" height="33" viewBox="0 0 24 33" fill="none" xmlns="http://www.w3.org/2000/svg">
<g clip-path="url(#clip0_1_116)">
<path d="M17.5725 16.33H5.8575V20.4125H17.5725V16.33ZM23.0029 6.69785L17.0295 0.446523C16.7549 0.159473 16.3827 0 15.9922 0H15.62V8.165H23.43V7.77589C23.43 7.37401 23.2775 6.9849 23.0029 6.69785ZM13.6675 8.67531V0H1.46438C0.652867 0 0 0.682543 0 1.53094V31.1291C0 31.9775 0.652867 32.66 1.46438 32.66H21.9656C22.7771 32.66 23.43 31.9775 23.43 31.1291V10.2062H15.1319C14.3265 10.2062 13.6675 9.51733 13.6675 8.67531ZM3.905 4.59281C3.905 4.31086 4.12344 4.0825 4.39313 4.0825H9.27437C9.54406 4.0825 9.7625 4.31086 9.7625 4.59281V5.61344C9.7625 5.89538 9.54406 6.12375 9.27437 6.12375H4.39313C4.12344 6.12375 3.905 5.89538 3.905 5.61344V4.59281ZM3.905 8.67531C3.905 8.39336 4.12344 8.165 4.39313 8.165H9.27437C9.54406 8.165 9.7625 8.39336 9.7625 8.67531V9.69594C9.7625 9.97788 9.54406 10.2062 9.27437 10.2062H4.39313C4.12344 10.2062 3.905 9.97788 3.905 9.69594V8.67531ZM19.525 28.0672C19.525 28.3491 19.3066 28.5775 19.0369 28.5775H14.1556C13.8859 28.5775 13.6675 28.3491 13.6675 28.0672V27.0466C13.6675 26.7646 13.8859 26.5362 14.1556 26.5362H19.0369C19.3066 26.5362 19.525 26.7646 19.525 27.0466V28.0672ZM19.525 15.3094V21.4331C19.525 21.997 19.0881 22.4537 18.5487 22.4537H4.88125C4.34187 22.4537 3.905 21.997 3.905 21.4331V15.3094C3.905 14.7455 4.34187 14.2887 4.88125 14.2887H18.5487C19.0881 14.2887 19.525 14.7455 19.525 15.3094Z" fill="white"/>
</g>
<defs>
<clipPath id="clip0_1_116">
<rect width="23.43" height="32.66" fill="white"/>
</clipPath>
</defs>
</svg>
