<svg width="17" height="17" viewBox="0 0 17 17" fill="none" xmlns="http://www.w3.org/2000/svg">
<path d="M8.05273 0C11.2694 0 12.8777 9.6272e-05 14.0361 0.766602C14.5534 1.10888 14.9966 1.55204 15.3389 2.06934C16.1052 3.22777 16.1055 4.83622 16.1055 8.05273C16.1055 11.2693 16.1053 12.8777 15.3389 14.0361C14.9966 14.5534 14.5534 14.9966 14.0361 15.3389C12.8777 16.1053 11.2693 16.1055 8.05273 16.1055C4.83622 16.1055 3.22777 16.1052 2.06934 15.3389C1.55204 14.9966 1.10888 14.5534 0.766602 14.0361C9.6272e-05 12.8777 0 11.2694 0 8.05273C0 4.83613 0.000157869 3.22778 0.766602 2.06934C1.10889 1.55203 1.55203 1.10889 2.06934 0.766602C3.22778 0.000157869 4.83613 0 8.05273 0ZM8.05273 3.88379C5.75032 3.88379 3.88384 5.75034 3.88379 8.05273C3.88379 10.3552 5.75029 12.2217 8.05273 12.2217C10.3551 12.2215 12.2217 10.3551 12.2217 8.05273C12.2216 5.75042 10.355 3.88392 8.05273 3.88379ZM8.05273 5.29395C9.57605 5.29408 10.8105 6.5294 10.8105 8.05273C10.8105 9.57612 9.57609 10.8114 8.05273 10.8115C6.52927 10.8115 5.29395 9.5762 5.29395 8.05273C5.294 6.52932 6.5293 5.29395 8.05273 5.29395ZM12.3857 2.69531C11.8447 2.69531 11.4062 3.1338 11.4062 3.6748C11.4064 4.21564 11.8449 4.6543 12.3857 4.6543C12.9266 4.65422 13.365 4.2156 13.3652 3.6748C13.3652 3.13384 12.9267 2.69539 12.3857 2.69531Z" fill="#071210"/>
</svg>
