<svg width="78" height="24" viewBox="0 0 78 24" fill="none" xmlns="http://www.w3.org/2000/svg">
<g clip-path="url(#clip0_1_327)">
<path d="M38.6367 4.52637C38.8945 4.5264 39.1414 4.61401 39.377 4.78809C39.6125 4.96217 39.7658 5.17864 39.8369 5.4375L41.584 11.1162C42.0196 12.509 42.4621 13.4731 42.9111 14.0088C43.3601 14.5445 43.8914 14.8125 44.5049 14.8125L47.1592 5.4375C47.2303 5.17862 47.3702 4.96217 47.5791 4.78809C47.788 4.61402 48.0215 4.52637 48.2793 4.52637H51.0928C51.3151 4.52637 51.4802 4.59835 51.5869 4.74121C51.6934 4.88381 51.747 5.00205 51.7471 5.0957C51.7471 5.18935 51.7375 5.26761 51.7197 5.33008L48.2256 17.8389C47.6033 20.0529 46.8322 21.6336 45.9121 22.5801C44.9919 23.5265 43.8067 24 42.3574 24L41.8008 23.9971C40.6429 23.9847 39.8033 23.9317 39.2832 23.8389C38.6832 23.7317 38.3074 23.6006 38.1562 23.4443C38.0051 23.2881 37.9297 23.1067 37.9297 22.9014V21.4287C37.9297 21.1878 38.0053 20.9892 38.1562 20.833C38.3074 20.6768 38.5031 20.5987 38.7432 20.5986H39.2363L40.9834 20.8262C42.0445 20.8262 42.8358 20.164 43.3555 18.8398C43.4006 18.7249 41.4682 18.8765 39.8369 16.833C38.2056 14.7895 38.104 14.1273 37.375 11.7881L35.3877 5.31934C35.361 5.24791 35.3477 5.16504 35.3477 5.07129C35.3477 4.97758 35.4036 4.86333 35.5146 4.72949C35.6258 4.59589 35.7926 4.52454 36.0146 4.51562L38.6367 4.52637ZM59.8428 4.25879C61.9585 4.2589 63.6564 4.7348 64.9365 5.68555C66.2167 6.63636 66.8573 8.10692 66.8574 10.0977V18.3887C66.8573 18.6294 66.7817 18.8259 66.6309 18.9775C66.4798 19.1293 66.2839 19.205 66.0439 19.2051H63.4697C63.2298 19.205 63.0339 19.1269 62.8828 18.9707C62.7319 18.8146 62.6563 18.6205 62.6562 18.3887V17.9727C61.2515 18.9815 59.6308 19.4839 57.7949 19.4795C55.9592 19.475 54.45 19.0624 53.2676 18.2412C52.0939 17.4198 51.5068 16.2588 51.5068 14.7588C51.5069 13.2589 52.0964 12.1073 53.2744 11.3037C54.4524 10.5004 55.9702 10.0977 57.8281 10.0977H62.2432C62.2431 9.05356 62.0252 8.32574 61.5898 7.91504C61.1542 7.50436 60.3908 7.29887 59.3018 7.29883C58.2856 7.29889 57.5517 7.53454 57.1006 8.00488L57.0078 8.10938C56.5675 8.64909 55.1827 8.46569 53.9463 8.22754C52.7099 7.98937 52.6291 7.35874 52.7393 7.03027C53.3603 5.18301 55.7285 4.25879 59.8428 4.25879ZM7.80176 4.25879C10.2468 4.25879 12.1542 4.89946 13.5234 6.18066C14.8926 7.46182 15.577 9.29881 15.5771 11.6914V12.4551C15.5771 12.6961 15.4992 12.8946 15.3438 13.0508C15.1882 13.207 14.9901 13.2852 14.75 13.2852H4.70801C4.79692 14.3833 5.11056 15.1826 5.64844 15.6826C6.18632 16.1826 7.04614 16.4326 8.22852 16.4326C9.41105 16.4326 10.2206 16.1646 10.6562 15.6289C11.092 15.0937 11.9267 15.1759 13.2139 15.3564C14.5008 15.5369 14.7913 16.2171 14.75 16.4326C14.3416 18.5419 12.2022 19.4807 7.78906 19.4727C5.33509 19.4727 3.42296 18.8212 2.05371 17.5176C0.684609 16.214 0 14.3365 0 11.8857C7.84735e-05 9.43504 0.689323 7.55127 2.06738 6.23438C3.44547 4.91751 5.35685 4.25883 7.80176 4.25879ZM21.832 0C22.0631 0 22.2565 0.0782256 22.4121 0.234375C22.5676 0.390565 22.6454 0.589131 22.6455 0.830078V6.20117C24.1748 4.90652 25.8048 4.25879 27.5342 4.25879C29.2633 4.25888 30.6703 4.78782 31.7549 5.8457C32.8396 6.90374 33.3818 8.52259 33.3818 10.7012V18.3887C33.3818 18.6206 33.3039 18.8145 33.1484 18.9707C32.9928 19.127 32.7948 19.2051 32.5547 19.2051H29.5811C29.3499 19.2051 29.1566 19.127 29.001 18.9707C28.8455 18.8145 28.7676 18.6207 28.7676 18.3887V10.7012C28.7676 8.56723 27.9179 7.91504 26.2197 7.91504C25.1084 7.91527 23.9168 9.05732 22.6455 10.334V18.3887C22.6454 18.6207 22.5676 18.8145 22.4121 18.9707C22.2565 19.1269 22.0632 19.2051 21.832 19.2051H18.8447C18.6136 19.2051 18.4202 19.1269 18.2646 18.9707C18.1092 18.8145 18.0313 18.6206 18.0312 18.3887V0.830078C18.0313 0.58914 18.1091 0.390563 18.2646 0.234375C18.4202 0.078148 18.6136 2.37527e-05 18.8447 0H21.832ZM58.1484 13.1387C57.5262 13.1387 57.0349 13.2903 56.6748 13.5938C56.3148 13.8973 56.1348 14.2904 56.1348 14.7725C56.1348 15.2545 56.322 15.6514 56.6953 15.9639C57.0687 16.2762 57.5978 16.4326 58.2822 16.4326C59.6513 16.4325 60.9719 16.031 62.2432 15.2275V13.1387H58.1484ZM7.79492 7.29883C5.82583 7.29897 4.78837 8.35305 4.68164 10.46H10.8828C10.7939 8.3529 9.76428 7.29883 7.79492 7.29883Z" fill="url(#paint0_linear_1_327)"/>
<circle cx="73.7143" cy="8.57143" r="3.42857" fill="#1576D8"/>
</g>
<defs>
<linearGradient id="paint0_linear_1_327" x1="0" y1="0" x2="0" y2="24" gradientUnits="userSpaceOnUse">
<stop stop-color="#254A72"/>
<stop offset="1" stop-color="#10243E"/>
</linearGradient>
<clipPath id="clip0_1_327">
<rect width="77.1429" height="24" fill="white"/>
</clipPath>
</defs>
</svg>
