<svg width="17" height="13" viewBox="0 0 17 13" fill="none" xmlns="http://www.w3.org/2000/svg">
<path d="M11.5208 0.0828876V0.0800781H12.276L12.5519 0.133458C12.7359 0.168112 12.9029 0.213527 13.0529 0.269717C13.203 0.325906 13.3482 0.391464 13.4886 0.466379C13.629 0.541293 13.7563 0.617626 13.8705 0.695349C13.9838 0.772146 14.0855 0.85362 14.1755 0.939772C14.2646 1.02687 14.4035 1.04934 14.5923 1.0072C14.7811 0.965057 14.9844 0.906522 15.2022 0.831608C15.4201 0.756694 15.6355 0.67241 15.8485 0.578757C16.0615 0.485104 16.1912 0.425641 16.2377 0.400356C16.2832 0.374144 16.3074 0.360097 16.3103 0.358214L16.3132 0.354L16.3277 0.346977L16.3422 0.339953L16.3567 0.332929L16.3713 0.325906L16.3742 0.321691L16.3785 0.318882L16.3829 0.316073L16.3858 0.311858L16.4003 0.307644L16.4148 0.304835L16.4119 0.325906L16.4076 0.346977L16.4003 0.368048L16.3931 0.389118L16.3858 0.403166L16.3785 0.417213L16.3713 0.438284C16.3664 0.452331 16.3616 0.471056 16.3567 0.494473C16.3519 0.51789 16.3059 0.611529 16.2188 0.775419C16.1317 0.939309 16.0227 1.10553 15.892 1.2741C15.7613 1.44266 15.6442 1.57002 15.5406 1.65618C15.436 1.74328 15.3668 1.80414 15.3329 1.8388C15.299 1.87438 15.2579 1.90715 15.2095 1.93713L15.1369 1.98349L15.1223 1.99051L15.1078 1.99753L15.1049 2.00175L15.1006 2.00456L15.0962 2.00737L15.0933 2.01158L15.0788 2.0186L15.0643 2.02563L15.0614 2.02984L15.057 2.03265L15.0526 2.03546L15.0497 2.03967L15.0468 2.04389L15.0425 2.0467L15.0381 2.04951L15.0352 2.05372H15.1078L15.5145 1.96944C15.7855 1.91325 16.0445 1.84536 16.2914 1.76575L16.6835 1.63933L16.7271 1.62528L16.7488 1.61826L16.7634 1.61123L16.7779 1.60421L16.7924 1.59719L16.8069 1.59016L16.836 1.58595L16.865 1.58314V1.61123L16.8578 1.61404L16.8505 1.61826L16.8476 1.62247L16.8432 1.62528L16.8389 1.62809L16.836 1.6323L16.8331 1.63652L16.8287 1.63933L16.8244 1.64214L16.8215 1.64635L16.8186 1.65056L16.8142 1.65337L16.8069 1.66742L16.7997 1.68147L16.7953 1.68428C16.7934 1.68709 16.7319 1.76668 16.6109 1.92308C16.4899 2.08041 16.4245 2.16 16.4148 2.16189C16.4052 2.1647 16.3916 2.17874 16.3742 2.20403C16.3577 2.23024 16.2551 2.33467 16.0663 2.51728C15.8775 2.6999 15.6926 2.86237 15.5116 3.00472C15.3296 3.14801 15.2376 3.32406 15.2356 3.5329C15.2327 3.7408 15.2216 3.97587 15.2022 4.23808C15.1829 4.5003 15.1466 4.78357 15.0933 5.08794C15.0401 5.3923 14.9578 5.73646 14.8464 6.12041C14.7351 6.50437 14.5995 6.87897 14.4398 7.24419C14.2801 7.60942 14.113 7.93719 13.9388 8.2275C13.7645 8.51782 13.6048 8.76365 13.4595 8.96499C13.3143 9.16633 13.1667 9.35597 13.0166 9.5339C12.8666 9.71184 12.6768 9.91225 12.4474 10.1351C12.2169 10.3571 12.0911 10.4788 12.0698 10.5004C12.0475 10.521 11.9526 10.5978 11.7851 10.7307C11.6186 10.8646 11.4395 10.9986 11.2478 11.1325C11.0571 11.2655 10.8818 11.3764 10.7221 11.4654C10.5623 11.5544 10.3697 11.656 10.1441 11.7702C9.91949 11.8854 9.67648 11.9922 9.41507 12.0905C9.15367 12.1888 8.87775 12.2801 8.5873 12.3644C8.29685 12.4487 8.01609 12.5143 7.74501 12.5611C7.47393 12.6079 7.16654 12.6477 6.82284 12.6805L6.3073 12.7297V12.7367H5.36334V12.7297L5.2399 12.7226C5.15762 12.718 5.08984 12.7133 5.03659 12.7086C4.98335 12.7039 4.78245 12.6781 4.43391 12.6313C4.08538 12.5845 3.81188 12.5377 3.6134 12.4909C3.41494 12.444 3.11964 12.3551 2.72754 12.224C2.33544 12.0929 1.99997 11.9603 1.72114 11.8264C1.44329 11.6934 1.26902 11.6092 1.19834 11.5736C1.12863 11.5389 1.05021 11.4958 0.963078 11.4443L0.832377 11.3671L0.829487 11.3629L0.825116 11.3601L0.820759 11.3572L0.817855 11.353L0.803333 11.346L0.78881 11.339L0.78592 11.3348L0.781549 11.332L0.777192 11.3291L0.774288 11.3249L0.771398 11.3207L0.767027 11.3179H0.759766V11.2898L0.774288 11.2926L0.78881 11.2968L0.854161 11.3039C0.897728 11.3085 1.01633 11.3156 1.20996 11.3249C1.4036 11.3343 1.60932 11.3343 1.82716 11.3249C2.04499 11.3156 2.26768 11.2945 2.49518 11.2617C2.72271 11.2289 2.99137 11.1728 3.30117 11.0932C3.61099 11.0135 3.89563 10.919 4.1551 10.8094C4.4136 10.6989 4.59754 10.6165 4.70695 10.5622C4.81537 10.5088 4.98093 10.4095 5.2036 10.2644L5.53761 10.0466L5.54052 10.0424L5.54487 10.0396L5.54924 10.0368L5.55213 10.0326L5.55504 10.0284L5.5594 10.0256L5.56377 10.0227L5.56666 10.0185L5.58118 10.0143L5.5957 10.0115L5.59861 9.99746L5.60296 9.98342L5.60733 9.98061L5.61022 9.97639L5.49404 9.96937C5.4166 9.96469 5.34156 9.96 5.26895 9.95532C5.19634 9.95064 5.08258 9.92957 4.92767 9.89211C4.77278 9.85464 4.60577 9.79846 4.42665 9.72354C4.24755 9.64863 4.07328 9.55965 3.90385 9.45664C3.73443 9.35363 3.61195 9.26793 3.53643 9.19958C3.46189 9.13214 3.36507 9.03663 3.24599 8.91301C3.12788 8.78847 3.02525 8.66062 2.93811 8.52952C2.85098 8.39842 2.76772 8.24716 2.68835 8.07579L2.5678 7.82013L2.56053 7.79906L2.55327 7.77799L2.54892 7.76394L2.54601 7.7499L2.5678 7.75271L2.58958 7.75692L2.74932 7.77799C2.85583 7.79204 3.02284 7.79672 3.25034 7.79204C3.47787 7.78736 3.63519 7.77799 3.72232 7.76394C3.80945 7.7499 3.86271 7.74053 3.88207 7.73585L3.91111 7.72883L3.94742 7.7218L3.98372 7.71478L3.98663 7.71056L3.99098 7.70776L3.99535 7.70495L3.99825 7.70073L3.9692 7.69371L3.94016 7.68668L3.91111 7.67966L3.88207 7.67264L3.85302 7.66561C3.83366 7.66094 3.79978 7.65157 3.75137 7.63752C3.70296 7.62347 3.57226 7.57196 3.35926 7.483C3.14628 7.39404 2.97685 7.30741 2.85098 7.22312C2.7248 7.1386 2.60449 7.04615 2.49083 6.94639C2.37755 6.84525 2.25315 6.71508 2.1176 6.55588C1.98207 6.39668 1.86105 6.21172 1.75455 6.00101C1.64805 5.7903 1.56818 5.58896 1.51493 5.39698C1.46189 5.20612 1.42689 5.011 1.41038 4.81401L1.38423 4.51902L1.39875 4.52183L1.41327 4.52604L1.42779 4.53307L1.44232 4.54009L1.45684 4.54712L1.47136 4.55414L1.69646 4.65247C1.84653 4.71803 2.03289 4.77422 2.25557 4.82104C2.47825 4.86786 2.61136 4.89362 2.65493 4.8983L2.72028 4.90532H2.85098L2.84809 4.90111L2.84372 4.8983L2.83936 4.89549L2.83646 4.89127L2.83357 4.88706L2.8292 4.88425L2.82484 4.88144L2.82194 4.87723L2.80741 4.8702L2.79289 4.86318L2.79 4.85897L2.78563 4.85616L2.78127 4.85335L2.77837 4.84913L2.76385 4.84211L2.74932 4.83508L2.74643 4.83087C2.74353 4.82899 2.70189 4.79903 2.62153 4.74097C2.54213 4.68197 2.45888 4.60565 2.37174 4.512C2.28461 4.41834 2.19748 4.32001 2.11034 4.217C2.02305 4.11376 1.9453 4.0033 1.87799 3.88689C1.81022 3.76984 1.73857 3.62092 1.66305 3.44019C1.58851 3.26038 1.53187 3.07917 1.49314 2.89656C1.45443 2.71394 1.43264 2.53368 1.42779 2.35574C1.42296 2.1778 1.42779 2.02563 1.44232 1.8992C1.45684 1.77278 1.48588 1.62996 1.52945 1.47076C1.57302 1.31156 1.63596 1.14299 1.71824 0.965057L1.84168 0.698159L1.84894 0.677088L1.8562 0.656017L1.86057 0.653207L1.86346 0.648993L1.86637 0.644779L1.87072 0.64197L1.8751 0.644779L1.87799 0.648993L1.88089 0.653207L1.88525 0.656017L1.88962 0.658826L1.89251 0.663041L1.89541 0.667255L1.89977 0.670064L1.90703 0.684111L1.91429 0.698159L1.91866 0.700968L1.92155 0.705182L2.1176 0.915892C2.2483 1.05636 2.40321 1.21323 2.58232 1.38648C2.76144 1.55972 2.86067 1.64962 2.88003 1.65618C2.8994 1.66367 2.92359 1.68521 2.95264 1.7208C2.98168 1.75546 3.0785 1.83833 3.24308 1.96944C3.40768 2.10054 3.62309 2.25273 3.88933 2.42598C4.15558 2.59922 4.45086 2.77013 4.77519 2.9387C5.09953 3.10727 5.44807 3.25944 5.8208 3.39524C6.19354 3.53103 6.45494 3.61999 6.605 3.66214C6.75508 3.70428 7.01163 3.75812 7.37469 3.82368C7.73774 3.88924 8.01126 3.93138 8.1952 3.95011C8.37915 3.96883 8.50502 3.9796 8.57278 3.98241L8.67444 3.98522L8.67155 3.96415L8.66717 3.94308L8.63813 3.76749C8.61877 3.65043 8.60908 3.48655 8.60908 3.27584C8.60908 3.06513 8.62603 2.87081 8.65991 2.69287C8.69381 2.51494 8.74464 2.33467 8.8124 2.15205C8.88017 1.96944 8.9465 1.82287 9.01135 1.71237C9.0772 1.6028 9.16336 1.47778 9.26985 1.33731C9.37636 1.19684 9.51432 1.05169 9.68374 0.901844C9.85317 0.752002 10.0468 0.618553 10.2646 0.501497C10.4825 0.384441 10.6834 0.295465 10.8673 0.234598C11.0513 0.173731 11.2062 0.133921 11.332 0.115196C11.4579 0.0964713 11.5208 0.085697 11.5208 0.0828876Z" fill="#071210"/>
</svg>
